#!OML:ASF E:\motion texture\Top Level 1\Subject 1\Session 1\male.ASF
:FULLY-SPECIFIED
:DEGREES
293
root -9.17084 18.0162 4.12839 0.348993 -96.4861 3.57144
lowerback 2.53964 -2.49896 -1.33558
upperback 0.33899 -3.36392 2.32359
thorax -0.85757 -1.68531 3.23736
lowerneck -10.6127 -8.04502 -11.3069
upperneck 3.90383 -10.4501 14.5093
head 4.29573 -4.77791 5.51882
rclavicle -9.93923e-017 -1.59028e-015
rhumerus -30.229 -20.918 -73.8092
rradius 15.6275
rwrist 29.3797
rhand -11.889 -23.8465
rfingers 7.12502
rthumb 14.1639 -53.3437
lclavicle -9.93923e-017 -1.59028e-015
lhumerus -12.9871 -11.6231 92.7682
lradius 55.5965
lwrist -17.257
lhand -16.7931 19.1011
lfingers 7.12502
lthumb 9.43502 48.8699
rfemur -33.2214 -6.93044 19.2153
rtibia 52.4825
rfoot -6.64569 -19.8616
rtoes 7.7584
lfemur -2.82216 -4.3819 -22.5659
ltibia 13.4548
lfoot -11.0109 0.404254
ltoes 1.94715
294
root -9.29545 18.0028 4.11226 1.91407 -96.2456 2.26799
lowerback 2.58691 -2.59446 -1.46984
upperback 0.346724 -3.4951 2.3471
thorax -0.857964 -1.75072 3.34234
lowerneck -10.6528 -8.06223 -11.3132
upperneck 3.4988 -10.4376 14.5955
head 4.18496 -4.77651 5.55024
rclavicle -1.47101e-014 5.56597e-015
rhumerus -31.3728 -22.2534 -72.8676
rradius 15.2553
rwrist 30.4202
rhand -11.8259 -23.7487
rfingers 7.12502
rthumb 14.2248 -53.2416
lclavicle -1.47101e-014 5.56597e-015
lhumerus -12.4902 -12.1094 92.379
lradius 57.0713
lwrist -16.5281
lhand -17.5166 19.3193
lfingers 7.12502
lthumb 8.73686 49.1185
rfemur -33.6831 -6.87654 19.0323
rtibia 50.0602
rfoot -6.78846 -20.0923
rtoes 7.94879
lfemur -2.64033 -4.44845 -22.7642
ltibia 13.4188
lfoot -11.3657 0.275641
ltoes 1.77537
295
root -9.41959 17.9878 4.09602 3.55335 -96.011 0.934901
lowerback 2.60118 -2.69137 -1.57972
upperback 0.349054 -3.62736 2.3719
thorax -0.846068 -1.81686 3.43343
lowerneck -10.6971 -8.07965 -11.3157
upperneck 3.08655 -10.4256 14.6849
head 4.07302 -4.77567 5.58211
rclavicle -6.85807e-015 2.10712e-014
rhumerus -32.5259 -23.6591 -71.8315
rradius 14.8927
rwrist 31.5252
rhand -11.7851 -23.6358
rfingers 7.12502
rthumb 14.2641 -53.1259
lclavicle -6.85807e-015 2.10712e-014
lhumerus -11.9886 -12.4987 91.9773
lradius 58.46
lwrist -15.8643
lhand -18.2489 19.4925
lfingers 7.12502
lthumb 8.0301 49.3199
rfemur -34.1057 -6.79065 18.8396
rtibia 47.4796
rfoot -6.76687 -20.1843
rtoes 8.23096
lfemur -2.54253 -4.52086 -22.9449
ltibia 13.4474
lfoot -11.7335 0.153829
ltoes 1.60665
296
root -9.54465 17.9723 4.07946 5.13105 -95.805 -0.333032
lowerback 2.60414 -2.78164 -1.6588
upperback 0.365327 -3.75018 2.3974
thorax -0.815536 -1.8789 3.50656
lowerneck -10.7628 -8.09861 -11.3172
upperneck 2.68563 -10.4159 14.7785
head 3.96869 -4.77527 5.61428
rclavicle -2.18663e-014 1.59028e-015
rhumerus -33.684 -25.091 -70.7229
rradius 14.5567
rwrist 32.6302
rhand -11.7521 -23.508
rfingers 7.12502
rthumb 14.2959 -52.9959
lclavicle -2.18663e-014 1.59028e-015
lhumerus -11.4846 -12.7884 91.5687
lradius 59.7656
lwrist -15.2914
lhand -18.9713 19.6195
lfingers 7.12502
lthumb 7.33283 49.4724
rfemur -34.4287 -6.63794 18.6425
rtibia 44.7301
rfoot -6.59247 -20.104
rtoes 8.5018
lfemur -2.45768 -4.57077 -23.0976
ltibia 13.5075
lfoot -12.1087 0.0404776
ltoes 1.40727
297
root -9.67161 17.9568 4.06258 6.55956 -95.6467 -1.47564
lowerback 2.61281 -2.8575 -1.70665
upperback 0.404894 -3.85345 2.42252
thorax -0.767363 -1.93193 3.56074
lowerneck -10.8516 -8.12187 -11.3189
upperneck 2.29976 -10.4128 14.8807
head 3.87426 -4.77713 5.64776
rclavicle -8.89561e-015 -4.37326e-015
rhumerus -34.8434 -26.4909 -69.5722
rradius 14.2562
rwrist 33.6693
rhand -11.6904 -23.3851
rfingers 7.12502
rthumb 14.3553 -52.8687
lclavicle -8.89561e-015 -4.37326e-015
lhumerus -10.9861 -12.9818 91.162
lradius 60.9915
lwrist -14.8133
lhand -19.66 19.6894
lfingers 7.12502
lthumb 6.66809 49.5644
rfemur -34.622 -6.39494 18.4448
rtibia 41.8322
rfoot -6.3081 -19.8452
rtoes 8.66457
lfemur -2.33691 -4.57624 -23.2215
ltibia 13.5736
lfoot -12.4877 -0.0683774
ltoes 1.1907
298
root -9.80029 17.9414 4.04505 7.82327 -95.5239 -2.4831
lowerback 2.63176 -2.9217 -1.73089
upperback 0.469098 -3.94111 2.44629
thorax -0.702232 -1.97793 3.59959
lowerneck -10.9505 -8.14822 -11.3237
upperneck 1.92583 -10.4154 14.997
head 3.78709 -4.78127 5.68534
rclavicle 4.73108e-014 -2.8625e-014
rhumerus -35.9996 -27.8376 -68.3989
rradius 13.9919
rwrist 34.6275
rhand -11.6009 -23.2673
rfingers 7.12502
rthumb 14.4416 -52.7449
lclavicle 4.73108e-014 -2.8625e-014
lhumerus -10.4948 -13.0932 90.7567
lradius 62.1413
lwrist -14.4223
lhand -20.3392 19.7083
lfingers 7.12502
lthumb 6.01233 49.6029
rfemur -34.6879 -6.06061 18.2434
rtibia 38.8156
rfoot -5.94335 -19.4509
rtoes 8.60997
lfemur -2.1768 -4.54791 -23.3178
ltibia 13.6463
lfoot -12.8758 -0.174343
ltoes 0.920624
299
root -9.92993 17.9253 4.02721 8.96504 -95.4108 -3.37762
lowerback 2.64664 -2.98107 -1.7262
upperback 0.552095 -4.02197 2.46671
thorax -0.618123 -2.0212 3.61763
lowerneck -11.0896 -8.1853 -11.3207
upperneck 1.59097 -10.4347 15.1169
head 3.72032 -4.79149 5.71949
rclavicle -1.93815e-014 7.15625e-015
rhumerus -37.1281 -29.0757 -67.2555
rradius 13.7653
rwrist 35.4415
rhand -11.5031 -23.1864
rfingers 7.12502
rthumb 14.5358 -52.6571
lclavicle -1.93815e-014 7.15625e-015
lhumerus -10.0139 -13.1208 90.364
lradius 63.2168
lwrist -14.1237
lhand -20.9972 19.6634
lfingers 7.12502
lthumb 5.37703 49.5751
rfemur -34.6652 -5.65445 18.0328
rtibia 35.7281
rfoot -5.52133 -18.9764
rtoes 8.30739
lfemur -2.01385 -4.51263 -23.3938
ltibia 13.7433
lfoot -13.2728 -0.279673
ltoes 0.633496
300
root -10.0606 17.9081 4.00886 10.0222 -95.313 -4.20136
lowerback 2.66124 -3.03292 -1.70428
upperback 0.652069 -4.09276 2.48344
thorax -0.518614 -2.05996 3.62126
lowerneck -11.2402 -8.22831 -11.321
upperneck 1.27724 -10.4647 15.2557
head 3.66469 -4.80597 5.75844
rclavicle 1.48095e-014 -1.19271e-015
rhumerus -38.1994 -30.1017 -66.2269
rradius 13.6008
rwrist 36.0136
rhand -11.403 -23.1648
rfingers 7.12502
rthumb 14.6322 -52.6286
lclavicle 1.48095e-014 -1.19271e-015
lhumerus -9.55081 -13.0767 89.9889
lradius 64.2204
lwrist -13.8956
lhand -21.6184 19.5884
lfingers 7.12502
lthumb 4.77723 49.5146
rfemur -34.5618 -5.16737 17.8057
rtibia 32.6143
rfoot -5.03589 -18.4836
rtoes 7.71214
lfemur -1.84522 -4.47163 -23.4565
ltibia 13.8684
lfoot -13.6799 -0.381362
ltoes 0.40575
301
root -10.1921 17.8897 3.98994 10.9679 -95.2294 -4.92481
lowerback 2.67854 -3.07614 -1.66512
upperback 0.761872 -4.15197 2.49695
thorax -0.412875 -2.09316 3.61141
lowerneck -11.3911 -8.27701 -11.3187
upperneck 0.993329 -10.5066 15.4031
head 3.6202 -4.82563 5.79822
rclavicle -3.77691e-015 1.98785e-015
rhumerus -39.2279 -31.0228 -65.2533
rradius 13.4577
rwrist 36.4882
rhand -11.3237 -23.1889
rfingers 7.12502
rthumb 14.7086 -52.6471
lclavicle -3.77691e-015 1.98785e-015
lhumerus -9.11684 -12.9657 89.6409
lradius 65.146
lwrist -13.7376
lhand -22.1899 19.4881
lfingers 7.12502
lthumb 4.22543 49.426
rfemur -34.3867 -4.5959 17.5607
rtibia 29.5069
rfoot -4.47879 -18.0376
rtoes 6.87169
lfemur -1.68044 -4.43334 -23.5037
ltibia 14.0292
lfoot -14.0954 -0.477215
ltoes 0.223995
302
root -10.3243 17.8697 3.97066 11.8975 -95.1647 -5.6397
lowerback 2.69535 -3.11106 -1.61631
upperback 0.874135 -4.19999 2.50309
thorax -0.306468 -2.12069 3.58818
lowerneck -11.527 -8.32683 -11.3056
upperneck 0.741838 -10.5557 15.548
head 3.58331 -4.84892 5.83485
rclavicle 2.18663e-014 -1.98785e-015
rhumerus -40.1783 -31.7069 -64.4431
rradius 13.366
rwrist 36.7527
rhand -11.263 -23.2637
rfingers 7.12502
rthumb 14.7671 -52.7177
lclavicle 2.18663e-014 -1.98785e-015
lhumerus -8.72306 -12.7926 89.3221
lradius 65.9875
lwrist -13.6402
lhand -22.6911 19.3801
lfingers 7.12502
lthumb 3.74136 49.327
rfemur -34.155 -3.94935 17.2855
rtibia 26.4479
rfoot -3.82548 -17.6713
rtoes 5.7582
lfemur -1.53067 -4.39642 -23.5515
ltibia 14.2417
lfoot -14.5245 -0.559335
ltoes 0.0544645
303
root -10.457 17.8482 3.95093 12.8674 -95.1136 -6.39964
lowerback 2.71328 -3.14178 -1.56716
upperback 0.980469 -4.24238 2.50527
thorax -0.207581 -2.14509 3.56084
lowerneck -11.6346 -8.37541 -11.2813
upperneck 0.527872 -10.6092 15.6781
head 3.5521 -4.87497 5.86502
rclavicle -9.64106e-015 -3.10104e-014
rhumerus -41.0655 -32.2546 -63.7237
rradius 13.2852
rwrist 36.9422
rhand -11.2405 -23.3412
rfingers 7.12502
rthumb 14.7888 -52.7935
lclavicle -9.64106e-015 -3.10104e-014
lhumerus -8.38162 -12.5583 89.0406
lradius 66.7393
lwrist -13.5966
lhand -23.1039 19.2865
lfingers 7.12502
lthumb 3.34272 49.2401
rfemur -33.8777 -3.24309 16.9761
rtibia 23.4826
rfoot -3.12721 -17.4296
rtoes 4.5755
lfemur -1.4065 -4.36878 -23.6058
ltibia 14.5164
lfoot -14.9658 -0.63021
ltoes -0.113645
304
root -10.5904 17.8255 3.93071 13.9081 -95.068 -7.23661
lowerback 2.73647 -3.17221 -1.52085
upperback 1.07607 -4.28429 2.50487
thorax -0.122751 -2.1688 3.53316
lowerneck -11.7149 -8.41716 -11.2552
upperneck 0.37232 -10.6594 15.7887
head 3.53206 -4.89927 5.88935
rclavicle 1.78906e-015 -3.57812e-015
rhumerus -41.8955 -32.7017 -63.0678
rradius 13.203
rwrist 37.1098
rhand -11.235 -23.4022
rfingers 7.12502
rthumb 14.7941 -52.8541
lclavicle 1.78906e-015 -3.57812e-015
lhumerus -8.09896 -12.2674 88.8011
lradius 67.3909
lwrist -13.6005
lhand -23.4386 19.2116
lfingers 7.12502
lthumb 3.01949 49.17
rfemur -33.5653 -2.50303 16.6363
rtibia 20.6683
rfoot -2.48043 -17.3315
rtoes 3.46507
lfemur -1.31476 -4.35194 -23.6686
ltibia 14.8671
lfoot -15.4185 -0.687072
ltoes -0.33871
305
root -10.7242 17.8018 3.91004 14.9856 -95.028 -8.11381
lowerback 2.76672 -3.20337 -1.4753
upperback 1.15736 -4.32697 2.50592
thorax -0.0563846 -2.19236 3.5084
lowerneck -11.7688 -8.45162 -11.2239
upperneck 0.277817 -10.7053 15.8674
head 3.52283 -4.92128 5.90339
rclavicle 1.78906e-015 0
rhumerus -42.662 -33.0634 -62.4645
rradius 13.1119
rwrist 37.2886
rhand -11.2341 -23.4291
rfingers 7.12502
rthumb 14.795 -52.881
lclavicle 1.78906e-015 0
lhumerus -7.8801 -11.9189 88.6087
lradius 67.9391
lwrist -13.6539
lhand -23.6936 19.166
lfingers 7.12502
lthumb 2.77324 49.1277
rfemur -33.2471 -1.75924 16.2896
rtibia 18.0956
rfoot -2.01751 -17.3698
rtoes 2.53723
lfemur -1.26526 -4.33492 -23.7365
ltibia 15.3073
lfoot -15.8832 -0.733488
ltoes -0.590517
306
root -10.8586 17.7777 3.88891 16.0867 -94.9901 -9.01946
lowerback 2.80671 -3.23703 -1.43007
upperback 1.22299 -4.37272 2.51127
thorax -0.0110197 -2.21693 3.48956
lowerneck -11.7891 -8.47548 -11.2005
upperneck 0.244452 -10.7413 15.9193
head 3.52358 -4.93827 5.91174
rclavicle -3.27995e-014 1.74931e-014
rhumerus -43.3666 -33.3655 -61.8934
rradius 13.0066
rwrist 37.5308
rhand -11.2273 -23.4184
rfingers 7.12502
rthumb 14.8015 -52.8698
lclavicle -3.27995e-014 1.74931e-014
lhumerus -7.71963 -11.5267 88.4592
lradius 68.3744
lwrist -13.7372
lhand -23.9146 19.1406
lfingers 7.12502
lthumb 2.55988 49.1049
rfemur -32.9594 -1.07551 15.9758
rtibia 15.8818
rfoot -1.88011 -17.5045
rtoes 1.75985
lfemur -1.26221 -4.30549 -23.8051
ltibia 15.8458
lfoot -16.3595 -0.773593
ltoes -0.923281
